<?xml version="1.0" standalone="no"?>
<!DOCTYPE svg PUBLIC "-//W3C//DTD SVG 20010904//EN"
 "http://www.w3.org/TR/2001/REC-SVG-20010904/DTD/svg10.dtd">
<svg version="1.0" xmlns="http://www.w3.org/2000/svg"
 width="620.000000pt" height="465.000000pt" viewBox="0 0 620.000000 465.000000"
 preserveAspectRatio="xMidYMid meet">
<metadata>
Created by potrace 1.12, written by Peter Selinger 2001-2015
</metadata>
<g transform="translate(0.000000,465.000000) scale(0.100000,-0.100000)"
fill="#000000" stroke="none">
<path d="M0 2325 l0 -2325 3100 0 3100 0 0 2325 0 2325 -3100 0 -3100 0 0
-2325z m3108 1263 c7 -7 12 -8 12 -3 0 5 7 -1 16 -13 12 -17 19 -20 29 -12 9
8 14 6 19 -5 4 -11 13 -14 25 -10 26 8 48 -21 33 -45 -9 -15 -8 -26 6 -52 l16
-33 7 30 c11 52 10 65 -11 82 -11 10 -20 23 -20 30 0 17 37 17 43 1 3 -7 6 -3
6 9 1 12 6 25 12 29 8 4 9 -1 4 -15 -5 -18 -3 -22 12 -19 13 2 18 -4 19 -22 2
-45 14 -68 34 -63 22 6 37 -15 16 -23 -9 -3 -16 -12 -16 -20 0 -8 -4 -14 -10
-14 -5 0 -10 7 -10 15 0 8 -4 15 -10 15 -14 0 -12 -16 3 -32 8 -7 16 -20 20
-28 3 -10 6 -7 6 8 1 12 6 22 11 22 6 0 10 5 10 11 0 6 7 17 15 26 12 12 19
13 30 3 10 -8 15 -9 15 -2 0 6 -4 14 -10 17 -11 7 9 45 24 45 4 0 3 -7 -4 -15
-10 -13 -10 -19 4 -34 16 -17 16 -19 0 -25 -13 -5 -15 -9 -6 -18 7 -7 12 -20
12 -30 0 -12 7 -18 23 -18 19 1 20 2 7 13 -8 7 -16 20 -18 30 -2 13 4 17 28
17 24 0 33 -6 40 -26 13 -34 13 -39 -5 -24 -10 8 -15 9 -15 2 0 -6 6 -15 13
-19 19 -12 57 -92 41 -86 -19 7 -18 -1 5 -39 11 -17 18 -36 15 -42 -3 -6 1 -3
9 7 14 16 15 16 31 -7 20 -31 21 -48 1 -21 -14 18 -16 18 -32 2 -9 -9 -13 -20
-9 -24 4 -4 11 -1 16 7 10 15 13 8 11 -20 -2 -22 37 -23 42 -2 4 16 5 16 6 0
0 -10 -5 -23 -12 -30 -10 -9 -11 -17 -3 -35 12 -26 32 -32 22 -6 -4 9 -1 20 6
25 19 11 25 10 32 -7 8 -21 -39 -51 -57 -36 -18 15 -28 3 -21 -24 5 -19 1 -23
-25 -27 -34 -5 -41 8 -15 27 15 10 15 13 0 28 -10 9 -12 18 -6 22 16 10 13 55
-3 49 -8 -3 -13 -15 -13 -27 1 -17 -4 -21 -19 -19 -11 2 -45 4 -75 5 -47 1
-55 -2 -59 -18 -2 -11 -8 -23 -13 -26 -7 -4 -6 -9 1 -13 6 -4 14 1 18 11 9 25
25 34 40 21 11 -9 9 -14 -8 -26 -16 -11 -18 -16 -8 -23 7 -4 19 -3 26 3 10 8
13 5 13 -10 0 -14 -5 -20 -14 -16 -8 3 -14 -1 -13 -8 0 -7 -1 -24 -1 -38 l-2
-24 -16 23 c-11 14 -20 19 -26 13 -6 -6 -20 -4 -40 5 -27 14 -30 19 -26 58 3
37 1 42 -13 34 -9 -4 -20 -5 -25 -1 -5 4 -3 0 4 -8 6 -8 12 -29 12 -47 0 -25
-4 -31 -15 -27 -11 5 -15 -1 -15 -24 0 -21 -8 -35 -25 -46 -31 -20 -30 -21
-31 14 -1 35 3 37 23 13 13 -16 14 -16 8 10 -3 15 -1 27 5 27 5 0 10 12 9 28
-1 25 -2 23 -15 -17 -3 -11 -7 -11 -19 -1 -10 9 -15 9 -15 1 0 -6 -7 -11 -15
-11 -7 0 -19 -8 -24 -17 -9 -16 -10 -15 -11 7 l0 24 -16 -22 c-15 -22 -11 -47
7 -37 11 7 11 3 3 -20 -5 -13 -12 -10 -35 16 -26 29 -34 31 -31 8 1 -4 -7 -5
-16 -2 -19 5 -48 43 -33 43 9 0 3 79 -6 90 -3 3 -11 -4 -19 -14 -14 -19 -14
-19 -14 2 0 12 9 26 20 32 11 6 20 20 19 33 l0 22 -10 -23 c-5 -13 -13 -20
-19 -17 -5 3 -10 2 -10 -4 0 -6 -11 -6 -32 0 -41 11 -38 12 -38 -7 0 -11 6
-14 20 -9 31 10 44 -4 24 -26 -23 -25 -27 -24 -43 12 -12 27 -12 36 3 65 18
39 21 84 6 84 -5 0 -10 -4 -10 -10 0 -5 -7 -7 -16 -3 -13 5 -13 7 -2 14 15 10
6 12 -16 3 -9 -3 -16 -17 -16 -30 0 -13 -5 -24 -11 -24 -6 0 -8 7 -5 16 3 9 9
27 12 40 4 14 15 29 25 34 11 7 16 16 12 26 -5 14 -7 14 -16 -2 -10 -18 -11
-17 -18 6 -13 48 -11 62 11 55 14 -4 22 -1 26 10 9 21 -5 33 -16 15 -7 -10
-10 -11 -10 -2 0 6 -4 12 -10 12 -5 0 -10 -7 -10 -15 0 -8 -5 -15 -10 -15 -6
0 -8 -26 -5 -67 3 -46 2 -60 -4 -43 -5 14 -9 44 -10 67 -1 38 -4 42 -28 45
l-28 4 25 11 c18 8 27 7 32 -1 6 -8 8 -8 8 1 0 6 -4 15 -10 18 -17 11 -11 27
9 20 10 -3 24 1 31 10 16 19 11 24 -23 27 -15 1 -25 7 -23 13 2 5 9 9 15 7 19
-4 51 41 39 55 -5 7 -7 17 -3 23 5 7 11 5 20 -7 11 -14 16 -16 26 -5 7 6 21
12 31 12 10 0 18 5 18 10 0 6 -11 10 -25 10 -17 0 -23 4 -19 15 4 11 14 13 33
8 23 -6 25 -5 12 10 -12 15 -9 17 31 17 24 0 49 -5 56 -12z m763 -323 c33 -17
36 -30 14 -51 -19 -20 -19 -84 0 -110 14 -18 14 -18 15 4 0 22 20 74 38 100 7
11 20 6 63 -21 30 -19 65 -46 77 -60 23 -24 23 -25 4 -31 -29 -10 -45 -32 -37
-56 7 -23 57 -28 99 -8 23 10 29 8 52 -18 14 -16 48 -62 74 -103 45 -69 53
-99 26 -102 -6 -1 3 -4 19 -8 25 -6 30 -11 28 -35 -1 -15 -19 -48 -39 -73 -65
-79 -122 -100 -184 -68 -35 18 -37 25 -10 48 11 9 20 23 20 31 0 7 10 16 21
19 19 5 21 10 14 44 -8 44 -12 53 -27 53 -7 0 -9 -15 -5 -39 6 -50 -1 -60 -49
-68 -24 -4 -56 -21 -85 -45 -55 -45 -73 -47 -96 -11 -20 30 -22 136 -5 226 10
51 -1 140 -19 146 -22 7 -64 50 -50 51 10 0 4 11 -16 33 -42 44 -59 82 -67
149 l-6 58 51 -20 c28 -11 64 -27 80 -35z m622 -616 c-2 -31 -12 -84 -23 -119
-22 -68 -24 -81 -12 -79 18 3 32 -2 32 -11 0 -5 -6 -9 -12 -7 -7 1 -14 -8 -16
-20 -2 -13 -7 -23 -12 -23 -5 0 -19 -22 -31 -50 -12 -27 -26 -50 -31 -50 -4 0
-8 -6 -8 -14 0 -20 -38 -30 -56 -15 -9 7 -27 33 -40 58 -25 47 -23 18 2 -31
23 -44 15 -46 -11 -3 -14 22 -34 68 -46 102 -22 68 -41 89 -74 85 -25 -3 -43
14 -48 49 -2 13 -10 24 -18 24 -14 0 -36 61 -26 71 3 4 20 -5 37 -20 17 -14
36 -26 41 -26 23 0 160 70 184 94 14 14 32 23 40 20 20 -8 20 -7 -19 -68 -35
-54 -110 -126 -133 -126 -19 0 -16 -18 7 -47 22 -29 27 -24 8 8 -8 14 -9 23
-3 25 6 2 40 19 78 38 64 33 81 33 82 1 0 -5 7 -11 16 -13 17 -3 41 68 55 161
5 37 10 47 23 45 13 -3 16 -15 14 -59z m-3173 -1234 c0 -2 29 -63 64 -137 35
-73 79 -167 99 -208 19 -41 64 -137 100 -212 37 -76 64 -138 62 -138 -2 0 -21
30 -41 68 -21 37 -41 69 -44 72 -3 3 -17 23 -30 45 -31 53 -30 52 -41 35 -7
-11 -8 -6 -3 15 4 21 3 26 -4 16 -8 -11 -13 -8 -26 15 -33 57 -5 -16 50 -133
l53 -113 -24 -72 c-35 -111 -136 -442 -166 -548 -19 -64 -19 -64 -30 -53 -12
12 0 55 127 449 l74 232 -47 91 c-39 76 -48 89 -57 74 -5 -10 -14 -22 -20 -26
-7 -6 -4 -7 7 -3 24 8 22 -16 -3 -32 -17 -10 -20 -10 -20 3 0 8 -4 15 -10 15
-5 0 -7 -6 -4 -14 3 -8 1 -17 -5 -21 -6 -3 -11 -14 -11 -23 1 -16 1 -16 11 1
12 21 39 22 39 1 0 -8 -5 -25 -11 -36 -8 -15 -8 -19 0 -14 11 7 15 -14 13 -59
0 -11 2 -14 4 -7 6 13 24 7 24 -9 0 -6 -4 -7 -10 -4 -13 8 -13 -8 0 -21 7 -7
3 -24 -10 -52 -11 -22 -20 -46 -20 -52 0 -26 -43 -140 -52 -140 -17 0 -2 81
26 144 30 68 43 126 28 126 -6 0 -14 -16 -18 -35 -3 -19 -10 -37 -14 -40 -5
-3 -11 -23 -15 -45 -4 -26 -12 -40 -22 -40 -12 0 -14 7 -8 28 11 47 -10 11
-30 -50 -18 -55 -28 -68 -39 -50 -5 8 49 161 83 237 28 60 33 83 22 90 -7 4
-8 -1 -4 -11 5 -12 3 -15 -6 -9 -10 6 -12 2 -7 -16 6 -21 5 -21 -9 4 -18 30
-31 38 -15 8 14 -27 13 -30 -13 -40 -15 -6 -28 -26 -41 -60 -27 -77 -54 -52
-31 29 5 20 5 22 -5 10 -10 -12 -11 -11 -7 8 3 12 4 22 2 22 -11 0 -35 -34
-34 -48 0 -14 2 -13 9 3 6 13 9 15 9 5 0 -8 -4 -22 -9 -30 -6 -10 -10 -11 -10
-2 0 19 -14 14 -25 -11 -11 -23 -2 -71 23 -114 14 -26 16 -43 3 -43 -5 0 -14
13 -19 29 -5 15 -22 40 -36 54 -14 14 -26 37 -26 52 0 14 -4 25 -10 25 -5 0
-10 6 -10 14 0 19 -27 46 -46 46 -8 0 -14 -7 -14 -15 0 -10 -10 -15 -34 -15
-19 0 -38 -5 -41 -10 -9 -14 -35 7 -35 26 0 8 -4 14 -10 14 -10 0 -3 -27 11
-46 5 -6 6 -14 3 -17 -7 -6 -36 44 -128 225 l-55 106 33 44 c18 24 46 66 61
93 16 28 53 85 82 129 29 43 53 80 53 82 0 2 14 23 30 46 17 24 46 65 65 93
19 27 35 45 35 40 1 -11 23 24 26 40 1 6 16 33 34 62 l33 52 58 -120 c33 -66
59 -122 59 -124z"/>
</g>
</svg>
